<?xml version="1.0" encoding="iso-8859-1"?>
<!-- Generator: Adobe Illustrator 20.1.0, SVG Export Plug-In . SVG Version: 6.00 Build 0)  -->
<svg xmlns="http://www.w3.org/2000/svg" xmlns:xlink="http://www.w3.org/1999/xlink" version="1.1" id="&#1057;&#1083;&#1086;&#1081;_1" x="0px" y="0px" viewBox="0 0 64 64" style="enable-background:new 0 0 64 64;" xml:space="preserve">
<linearGradient id="SVGID_1__48167" gradientUnits="userSpaceOnUse" x1="32" y1="7.5" x2="32" y2="56.6886" spreadMethod="reflect">
	<stop offset="0" style="stop-color:#1A6DFF"/>
	<stop offset="1" style="stop-color:#C822FF"/>
</linearGradient>
<path style="fill:url(#SVGID_1__48167);" d="M51,8H13c-2.757,0-5,2.243-5,5v38c0,2.757,2.243,5,5,5h38c2.757,0,5-2.243,5-5V13  C56,10.243,53.757,8,51,8z M54,51c0,1.654-1.346,3-3,3H13c-1.654,0-3-1.346-3-3V13c0-1.654,1.346-3,3-3h38c1.654,0,3,1.346,3,3V51z"/>
<linearGradient id="SVGID_2__48167" gradientUnits="userSpaceOnUse" x1="32" y1="7.5" x2="32" y2="56.6886" spreadMethod="reflect">
	<stop offset="0" style="stop-color:#1A6DFF"/>
	<stop offset="1" style="stop-color:#C822FF"/>
</linearGradient>
<path style="fill:url(#SVGID_2__48167);" d="M50,12H14c-1.103,0-2,0.897-2,2v36c0,1.103,0.897,2,2,2h36c1.103,0,2-0.897,2-2V14  C52,12.897,51.103,12,50,12z M50,50H14V14h36V50z"/>
<linearGradient id="SVGID_3__48167" gradientUnits="userSpaceOnUse" x1="32.0021" y1="7.5" x2="32.0021" y2="56.6886" spreadMethod="reflect">
	<stop offset="0" style="stop-color:#1A6DFF"/>
	<stop offset="1" style="stop-color:#C822FF"/>
</linearGradient>
<path style="fill:url(#SVGID_3__48167);" d="M29.429,38.425c1.99,0,3.979-0.657,5.615-1.966l7.112,7.112l1.414-1.414l-7.113-7.112  c2.824-3.531,2.604-8.71-0.665-11.98c-3.509-3.51-9.219-3.509-12.728,0s-3.509,9.219,0,12.729  C24.819,37.548,27.124,38.425,29.429,38.425z M24.479,24.479c1.365-1.364,3.157-2.047,4.95-2.047c1.792,0,3.585,0.683,4.95,2.047  c2.729,2.729,2.729,7.171,0,9.9c-2.729,2.728-7.17,2.729-9.9,0C21.75,31.649,21.75,27.208,24.479,24.479z"/>
<linearGradient id="SVGID_4__48167" gradientUnits="userSpaceOnUse" x1="29.429" y1="23.1667" x2="29.429" y2="36.8374" spreadMethod="reflect">
	<stop offset="0" style="stop-color:#6DC7FF"/>
	<stop offset="1" style="stop-color:#E6ABFF"/>
</linearGradient>
<circle style="fill:url(#SVGID_4__48167);" cx="29.429" cy="29.429" r="5"/>
</svg>
